<svg xmlns="http://www.w3.org/2000/svg" width="27" height="27" viewBox="0 0 27 27" fill="none">
  <path d="M3.31018 5.51703V4.96533C3.16386 4.96533 3.02353 5.02346 2.92007 5.12692C2.81661 5.23038 2.75848 5.37071 2.75848 5.51703H3.31018ZM23.1712 5.51703H23.7229C23.7229 5.37071 23.6647 5.23038 23.5613 5.12692C23.4578 5.02346 23.3175 4.96533 23.1712 4.96533V5.51703ZM3.31018 6.06872H23.1712V4.96533H3.31018V6.06872ZM22.6195 5.51703V18.7577H23.7229V5.51703H22.6195ZM20.9644 20.4128H5.51695V21.5162H20.9644V20.4128ZM3.86187 18.7577V5.51703H2.75848V18.7577H3.86187ZM5.51695 20.4128C5.078 20.4128 4.65702 20.2384 4.34663 19.928C4.03625 19.6176 3.86187 19.1966 3.86187 18.7577H2.75848C2.75848 19.4893 3.04911 20.1909 3.56642 20.7082C4.08373 21.2255 4.78536 21.5162 5.51695 21.5162V20.4128ZM22.6195 18.7577C22.6195 19.1966 22.4451 19.6176 22.1347 19.928C21.8243 20.2384 21.4033 20.4128 20.9644 20.4128V21.5162C21.696 21.5162 22.3976 21.2255 22.9149 20.7082C23.4322 20.1909 23.7229 19.4893 23.7229 18.7577H22.6195Z" fill="black"/>
  <path d="M3.31018 5.51709L13.2407 15.4476L23.1712 5.51709" stroke="black" stroke-linecap="round" stroke-linejoin="round"/>
</svg>