<svg width="25" height="30" viewBox="0 0 25 30" fill="none" xmlns="http://www.w3.org/2000/svg">
<path d="M12.4508 21.25C13.0012 21.25 13.529 20.9866 13.9181 20.5178C14.3073 20.0489 14.5259 19.413 14.5259 18.75C14.5259 18.087 14.3073 17.4511 13.9181 16.9822C13.529 16.5134 13.0012 16.25 12.4508 16.25C11.9004 16.25 11.3726 16.5134 10.9835 16.9822C10.5943 17.4511 10.3757 18.087 10.3757 18.75C10.3757 19.413 10.5943 20.0489 10.9835 20.5178C11.3726 20.9866 11.9004 21.25 12.4508 21.25ZM18.6762 10C19.2266 10 19.7544 10.2634 20.1435 10.7322C20.5327 11.2011 20.7513 11.837 20.7513 12.5V25C20.7513 25.663 20.5327 26.2989 20.1435 26.7678C19.7544 27.2366 19.2266 27.5 18.6762 27.5H6.2254C5.67504 27.5 5.14722 27.2366 4.75806 26.7678C4.3689 26.2989 4.15027 25.663 4.15027 25V12.5C4.15027 11.837 4.3689 11.2011 4.75806 10.7322C5.14722 10.2634 5.67504 10 6.2254 10H7.26297V7.5C7.26297 5.8424 7.80954 4.25269 8.78245 3.08058C9.75536 1.90848 11.0749 1.25 12.4508 1.25C13.1321 1.25 13.8067 1.41166 14.4361 1.72575C15.0655 2.03984 15.6374 2.50022 16.1192 3.08058C16.6009 3.66095 16.983 4.34994 17.2437 5.10823C17.5045 5.86651 17.6386 6.67924 17.6386 7.5V10H18.6762ZM12.4508 3.75C11.6253 3.75 10.8335 4.14509 10.2498 4.84835C9.66605 5.55161 9.3381 6.50544 9.3381 7.5V10H15.5635V7.5C15.5635 6.50544 15.2356 5.55161 14.6518 4.84835C14.0681 4.14509 13.2763 3.75 12.4508 3.75Z" fill="#212427"/>
</svg>
