<svg width="26" height="30" viewBox="0 0 26 30" fill="none" xmlns="http://www.w3.org/2000/svg">
<path d="M12.5313 5C13.6392 5 14.7016 5.52678 15.485 6.46447C16.2683 7.40215 16.7084 8.67392 16.7084 10C16.7084 11.3261 16.2683 12.5979 15.485 13.5355C14.7016 14.4732 13.6392 15 12.5313 15C11.4235 15 10.361 14.4732 9.57767 13.5355C8.79431 12.5979 8.35423 11.3261 8.35423 10C8.35423 8.67392 8.79431 7.40215 9.57767 6.46447C10.361 5.52678 11.4235 5 12.5313 5ZM12.5313 17.5C17.147 17.5 20.8855 19.7375 20.8855 22.5V25H4.17712V22.5C4.17712 19.7375 7.91563 17.5 12.5313 17.5Z" fill="#212427"/>
</svg>
